<?xml version="1.0" encoding="UTF-8"?>
<svg xmlns="http://www.w3.org/2000/svg" xmlns:xlink="http://www.w3.org/1999/xlink" width="80px" height="80px"
     viewBox="0 0 80 80" version="1.1"
>
    <g id="surface1">
        <path style=" stroke:none;fill-rule:nonzero;fill:rgb(0%,0%,0%);fill-opacity:1;"
              d="M 35.972656 31.367188 C 24.414062 31.367188 12.714844 33.523438 12.714844 37.644531 L 12.714844 37.777344 C 12.714844 50.601562 23.148438 61.035156 35.972656 61.035156 C 48.796875 61.035156 59.230469 50.601562 59.230469 37.777344 L 59.230469 37.644531 C 59.226562 33.523438 47.527344 31.367188 35.972656 31.367188 Z M 35.972656 33.125 C 49.097656 33.125 57.472656 35.800781 57.472656 37.644531 C 57.472656 39.492188 49.097656 42.167969 35.972656 42.167969 C 22.847656 42.167969 14.472656 39.488281 14.472656 37.644531 C 14.472656 35.800781 22.847656 33.125 35.972656 33.125 Z M 35.972656 33.125 "/>
        <path style=" stroke:none;fill-rule:nonzero;fill:rgb(0%,0%,0%);fill-opacity:1;"
              d="M 35.296875 43.894531 C 36.488281 42.269531 37.0625 40.804688 37.300781 39.238281 C 37.46875 38.15625 37.480469 37 37.425781 35.707031 L 38.074219 35.738281 L 38.074219 35.734375 C 38.496094 35.765625 38.929688 35.777344 39.355469 35.800781 L 39.394531 35.800781 C 39.445312 37.140625 39.425781 38.355469 39.246094 39.535156 C 38.957031 41.414062 38.277344 43.15625 36.878906 45.0625 Z M 31.820312 34.726562 L 36.222656 39.128906 L 35.851562 40.894531 L 30.171875 35.214844 C 29.394531 35.519531 28.636719 35.929688 27.910156 36.484375 L 26.71875 34.921875 C 30.375 32.148438 34.304688 32.351562 38.242188 32.554688 C 38.6875 32.578125 39.132812 32.601562 39.488281 32.617188 C 41.046875 32.683594 42.59375 32.695312 44.078125 32.449219 L 40.15625 28.523438 L 40.527344 26.757812 L 45.792969 32.027344 C 46.839844 31.675781 47.863281 31.136719 48.851562 30.332031 L 41.464844 22.949219 C 40.132812 24.402344 39.511719 25.988281 39.257812 27.675781 C 39.078125 28.851562 39.074219 30.09375 39.128906 31.378906 L 38.371094 31.339844 C 38.328125 31.335938 38.285156 31.332031 38.242188 31.332031 C 37.878906 31.3125 37.519531 31.296875 37.160156 31.277344 C 37.105469 29.949219 37.121094 28.652344 37.3125 27.378906 C 37.632812 25.277344 38.425781 23.296875 40.160156 21.476562 C 42.007812 19.53125 43.988281 18.511719 46.035156 18.003906 C 47.664062 17.597656 49.300781 17.519531 50.945312 17.550781 C 50.96875 17.941406 50.996094 18.339844 51.023438 18.75 C 51.042969 19.007812 51.058594 19.265625 51.078125 19.519531 C 49.828125 19.492188 48.59375 19.523438 47.398438 19.722656 L 51.40625 23.734375 L 51.035156 25.5 L 45.683594 20.148438 C 44.617188 20.511719 43.570312 21.070312 42.5625 21.90625 L 49.957031 29.300781 C 51.339844 27.828125 51.980469 26.210938 52.242188 24.492188 C 52.519531 22.679688 52.382812 20.707031 52.238281 18.660156 C 52.078125 16.351562 51.976562 14.453125 52.253906 12.632812 C 52.542969 10.753906 53.222656 9.011719 54.621094 7.105469 L 56.203125 8.277344 C 55.011719 9.898438 54.4375 11.363281 54.195312 12.929688 C 53.949219 14.554688 54.046875 16.339844 54.199219 18.519531 C 54.351562 20.683594 54.492188 22.769531 54.1875 24.792969 C 53.867188 26.890625 53.074219 28.871094 51.339844 30.695312 C 49.492188 32.640625 47.511719 33.65625 45.464844 34.167969 C 43.457031 34.664062 41.433594 34.667969 39.40625 34.582031 C 38.925781 34.558594 38.53125 34.539062 38.140625 34.519531 C 35.996094 34.410156 33.855469 34.296875 31.820312 34.726562 Z M 59.507812 17.476562 L 55.257812 13.226562 L 55.628906 11.460938 L 61.179688 17.011719 C 62.007812 16.703125 62.816406 16.273438 63.589844 15.6875 L 64.78125 17.25 C 61.820312 19.492188 58.679688 19.789062 55.5 19.710938 C 55.472656 19.285156 55.445312 18.859375 55.414062 18.433594 C 55.398438 18.195312 55.382812 17.964844 55.367188 17.738281 C 56.773438 17.777344 58.160156 17.738281 59.507812 17.476562 Z M 59.507812 17.476562 "/>
    </g>
</svg>